STARTFONT 2.1
COMMENT $XConsortium: luBIS19.bdf,v 1.3 94/04/02 15:59:22 gildea Exp $
COMMENT  (c) Copyright Bigelow & Holmes 1986, 1985. Lucida is a registered
COMMENT  trademark of Bigelow & Holmes. See LEGAL NOTICE file for terms 
COMMENT  of the license. 
FONT -RFX-Serene-Bold-I-Normal-Sans-19-190-75-75-P-122-iso10646-0400
SIZE 19 72 72
FONTBOUNDINGBOX 39 21 -13 -4
STARTPROPERTIES 24
FONTNAME_REGISTRY ""
FOUNDRY "RFX"
FAMILY_NAME "Serene"
WEIGHT_NAME "Bold"
SLANT "I"
SETWIDTH_NAME "Normal"
ADD_STYLE_NAME "Sans"
PIXEL_SIZE 19
POINT_SIZE 190
RESOLUTION_X 75
RESOLUTION_Y 75
SPACING "P"
AVERAGE_WIDTH "122"
CHARSET_REGISTRY "iso10646"
CHARSET_ENCODING "0400"
COPYRIGHT "Copyright Bigelow & Holmes 1986, 1985."
FONT_ASCENT 17
FONT_DESCENT 4
DEFAULT_CHAR 32
FACE_NAME "Lucida Sans Bold Italic"
COPYRIGHT2 "Cyrillic glyphs copyright 2000 Dmitry Yu. Bolkhovityanov, bolkhov@inp.nsk.su"
SOURCEDATE "Sat Jul 29 12:11:29 2000"
PKGVERSION "1.1"
ASSEMBLER "cvtbdf.pl (Linux)"
ENDPROPERTIES
CHARS 303
STARTCHAR space
ENCODING 32
SWIDTH 343 0
DWIDTH 6 0
BBX 0 0 0 0
BITMAP
ENDCHAR
STARTCHAR exclam
ENCODING 33
SWIDTH 343 0
DWIDTH 7 0
BBX 6 14 2 0
BITMAP
3C
3C
3C
38
38
38
30
30
70
70
00
00
00
F0
ENDCHAR
STARTCHAR quotedbl
ENCODING 34
SWIDTH 530 0
DWIDTH 10 0
BBX 9 5 3 9
BITMAP
E380
C180
C180
4100
4100
ENDCHAR
STARTCHAR numbersign
ENCODING 35
SWIDTH 687 0
DWIDTH 13 0
BBX 12 14 2 0
BITMAP
0130
0220
0260
0440
7FF0
0880
0880
1100
1100
FFE0
2200
6400
4400
C800
ENDCHAR
STARTCHAR dollar
ENCODING 36
SWIDTH 687 0
DWIDTH 13 0
BBX 11 20 2 -3
BITMAP
0180
0100
0700
0FE0
1FE0
3960
3300
3E00
1E00
0F00
0780
07C0
0DC0
08C0
C980
FF80
FF00
1C00
1800
1800
ENDCHAR
STARTCHAR percent
ENCODING 37
SWIDTH 908 0
DWIDTH 17 0
BBX 16 14 2 0
BITMAP
3802
6C04
C408
C410
CC20
CC40
CC80
7100
021E
0433
0833
1023
2026
401C
ENDCHAR
STARTCHAR ampersand
ENCODING 38
SWIDTH 816 0
DWIDTH 15 0
BBX 14 14 2 0
BITMAP
03C0
0E20
0C30
0C30
0CE0
0FC0
1F8C
7F0C
F318
E398
C1B0
E0E0
71E0
3FF8
ENDCHAR
STARTCHAR quotesingle
ENCODING 39
SWIDTH 265 0
DWIDTH 5 0
BBX 4 6 3 8
BITMAP
F0
E0
E0
60
40
40
ENDCHAR
STARTCHAR parenleft
ENCODING 40
SWIDTH 386 0
DWIDTH 7 0
BBX 7 18 2 -4
BITMAP
06
0C
1C
18
30
70
60
60
E0
E0
C0
C0
C0
E0
60
60
20
20
ENDCHAR
STARTCHAR parenright
ENCODING 41
SWIDTH 386 0
DWIDTH 7 0
BBX 7 18 1 -4
BITMAP
10
18
1C
0C
0C
0C
0C
0E
0C
0C
1C
1C
18
38
30
60
C0
80
ENDCHAR
STARTCHAR asterisk
ENCODING 42
SWIDTH 464 0
DWIDTH 9 0
BBX 7 6 3 8
BITMAP
1C
5A
EE
38
EC
48
ENDCHAR
STARTCHAR plus
ENCODING 43
SWIDTH 687 0
DWIDTH 13 0
BBX 11 12 2 0
BITMAP
0300
0200
0200
0200
0200
FFE0
0800
0800
0800
0800
0800
1800
ENDCHAR
STARTCHAR comma
ENCODING 44
SWIDTH 343 0
DWIDTH 7 0
BBX 5 7 1 -3
BITMAP
78
78
78
70
30
70
E0
ENDCHAR
STARTCHAR minus
ENCODING 45
SWIDTH 687 0
DWIDTH 13 0
BBX 11 1 2 6
BITMAP
FFE0
ENDCHAR
STARTCHAR period
ENCODING 46
SWIDTH 343 0
DWIDTH 7 0
BBX 4 3 2 0
BITMAP
70
F0
E0
ENDCHAR
STARTCHAR slash
ENCODING 47
SWIDTH 596 0
DWIDTH 11 0
BBX 12 17 -1 -3
BITMAP
0010
0020
0060
0040
0080
0180
0100
0200
0600
0400
0800
1800
1000
2000
6000
4000
8000
ENDCHAR
STARTCHAR zero
ENCODING 48
SWIDTH 687 0
DWIDTH 13 0
BBX 10 14 3 0
BITMAP
0F00
1980
31C0
71C0
71C0
61C0
E1C0
E1C0
E1C0
E180
E380
E300
6600
3C00
ENDCHAR
STARTCHAR one
ENCODING 49
SWIDTH 687 0
DWIDTH 13 0
BBX 6 14 5 0
BITMAP
FC
3C
3C
38
38
78
78
78
70
70
70
F0
F0
E0
ENDCHAR
STARTCHAR two
ENCODING 50
SWIDTH 687 0
DWIDTH 13 0
BBX 12 14 2 0
BITMAP
1FC0
3060
0070
0070
0070
0060
00C0
0300
0600
0C00
1800
7800
F000
FFC0
ENDCHAR
STARTCHAR three
ENCODING 51
SWIDTH 687 0
DWIDTH 13 0
BBX 11 14 3 0
BITMAP
1F80
20E0
00E0
00E0
00C0
0380
3F00
0380
01C0
01C0
01C0
01C0
C380
FE00
ENDCHAR
STARTCHAR four
ENCODING 52
SWIDTH 687 0
DWIDTH 13 0
BBX 12 14 1 0
BITMAP
0070
00F0
01E0
02E0
04E0
0CE0
19E0
31E0
61C0
FFF0
03C0
0380
0380
0380
ENDCHAR
STARTCHAR five
ENCODING 53
SWIDTH 687 0
DWIDTH 13 0
BBX 12 14 2 0
BITMAP
1FF0
1000
3000
3000
3E00
0780
01C0
01C0
00C0
00E0
01C0
01C0
C380
FE00
ENDCHAR
STARTCHAR six
ENCODING 54
SWIDTH 687 0
DWIDTH 13 0
BBX 12 14 2 0
BITMAP
07F0
1C30
3C00
3800
7800
7F80
F1C0
E0E0
E060
E060
E0E0
60C0
7180
1F00
ENDCHAR
STARTCHAR seven
ENCODING 55
SWIDTH 687 0
DWIDTH 13 0
BBX 11 14 4 0
BITMAP
FFE0
00C0
0180
0180
0300
0600
0C00
0C00
1800
3000
3000
6000
E000
E000
ENDCHAR
STARTCHAR eight
ENCODING 56
SWIDTH 687 0
DWIDTH 13 0
BBX 12 14 2 0
BITMAP
07C0
1870
1030
3830
3CF0
1FE0
0F80
3FE0
73E0
E0E0
C060
C060
60C0
3F00
ENDCHAR
STARTCHAR nine
ENCODING 57
SWIDTH 687 0
DWIDTH 13 0
BBX 12 14 2 0
BITMAP
0F80
18E0
3060
7070
6070
6070
7070
38F0
1FE0
01E0
01C0
03C0
C380
FE00
ENDCHAR
STARTCHAR colon
ENCODING 58
SWIDTH 343 0
DWIDTH 7 0
BBX 6 10 1 0
BITMAP
3C
3C
78
00
00
00
00
78
F0
F0
ENDCHAR
STARTCHAR semicolon
ENCODING 59
SWIDTH 343 0
DWIDTH 7 0
BBX 6 13 1 -3
BITMAP
3C
3C
38
00
00
00
78
78
70
70
30
70
E0
ENDCHAR
STARTCHAR less
ENCODING 60
SWIDTH 687 0
DWIDTH 13 0
BBX 11 10 1 1
BITMAP
0060
01C0
0700
1C00
F000
6000
1000
0C00
0300
0180
ENDCHAR
STARTCHAR equal
ENCODING 61
SWIDTH 687 0
DWIDTH 13 0
BBX 12 7 2 2
BITMAP
7FF0
0000
0000
0000
0000
0000
FFE0
ENDCHAR
STARTCHAR greater
ENCODING 62
SWIDTH 687 0
DWIDTH 13 0
BBX 11 10 1 1
BITMAP
3000
1800
0600
0300
00C0
01E0
0700
1C00
7000
C000
ENDCHAR
STARTCHAR question
ENCODING 63
SWIDTH 539 0
DWIDTH 10 0
BBX 9 14 3 0
BITMAP
FE00
8380
0380
0380
0700
0E00
1C00
3800
7800
7000
0000
0000
0000
F000
ENDCHAR
STARTCHAR at
ENCODING 64
SWIDTH 833 0
DWIDTH 16 0
BBX 13 14 3 0
BITMAP
07C0
1820
2010
2008
47C8
49C8
91C8
A388
A398
A3A0
9FE0
8000
6100
1F80
ENDCHAR
STARTCHAR A
ENCODING 65
SWIDTH 771 0
DWIDTH 15 0
BBX 13 14 -1 0
BITMAP
01C0
01E0
03E0
07E0
05E0
0CE0
08F0
18F0
10F0
30F0
3FF0
6078
4078
8078
ENDCHAR
STARTCHAR B
ENCODING 66
SWIDTH 660 0
DWIDTH 13 0
BBX 12 14 1 0
BITMAP
1FE0
3C70
3C70
3C70
3860
3840
7880
78C0
7FE0
78E0
7060
F060
F0C0
FF80
ENDCHAR
STARTCHAR C
ENCODING 67
SWIDTH 737 0
DWIDTH 14 0
BBX 14 14 2 0
BITMAP
03FC
0E0C
1800
3800
7000
6000
E000
E000
E000
E000
E000
7000
7830
1FF0
ENDCHAR
STARTCHAR D
ENCODING 68
SWIDTH 822 0
DWIDTH 16 0
BBX 15 14 2 0
BITMAP
1FF8
3E1C
3E0E
3C0E
3C0E
3C0E
7C0E
780E
781C
781C
7838
F030
F0E0
FF80
ENDCHAR
STARTCHAR E
ENCODING 69
SWIDTH 642 0
DWIDTH 12 0
BBX 12 14 2 0
BITMAP
1FF0
3C00
3C00
3C00
3800
3800
7FC0
7800
7800
7800
7000
F000
F000
FFC0
ENDCHAR
STARTCHAR F
ENCODING 70
SWIDTH 614 0
DWIDTH 12 0
BBX 12 14 2 0
BITMAP
1FF0
3C00
3C00
3C00
3800
3800
7FC0
7800
7800
7000
7000
F000
F000
F000
ENDCHAR
STARTCHAR G
ENCODING 71
SWIDTH 755 0
DWIDTH 14 0
BBX 14 14 2 0
BITMAP
03FC
0E0C
1800
3800
7000
6000
E000
E000
E000
E078
E0F0
70F0
79F0
1FE0
ENDCHAR
STARTCHAR H
ENCODING 72
SWIDTH 813 0
DWIDTH 15 0
BBX 15 14 2 0
BITMAP
1C1E
3C1E
3C1E
3C1C
3C1C
383C
7FFC
783C
7838
7078
7078
F078
F078
F070
ENDCHAR
STARTCHAR I
ENCODING 73
SWIDTH 361 0
DWIDTH 7 0
BBX 6 14 2 0
BITMAP
3C
3C
3C
38
38
38
78
78
70
70
70
F0
F0
F0
ENDCHAR
STARTCHAR J
ENCODING 74
SWIDTH 502 0
DWIDTH 10 0
BBX 11 17 0 -3
BITMAP
01E0
01E0
01E0
01C0
03C0
03C0
03C0
03C0
0380
0380
0780
0780
0780
0700
0700
8E00
FC00
ENDCHAR
STARTCHAR K
ENCODING 75
SWIDTH 753 0
DWIDTH 14 0
BBX 12 14 2 0
BITMAP
1C30
3C20
3C40
3CC0
3D80
3900
7B00
7F00
7B80
79C0
71C0
F0E0
F0E0
F070
ENDCHAR
STARTCHAR L
ENCODING 76
SWIDTH 623 0
DWIDTH 12 0
BBX 10 14 2 0
BITMAP
1C00
3C00
3C00
3C00
3800
3800
7800
7800
7800
7800
7000
F000
F000
FFC0
ENDCHAR
STARTCHAR M
ENCODING 77
SWIDTH 940 0
DWIDTH 18 0
BBX 17 14 2 0
BITMAP
1E0780
3E0780
3F0F80
3F0F00
3F1700
371700
772700
776F00
774E00
77CE00
678E00
E70E00
E31E00
E01C00
ENDCHAR
STARTCHAR N
ENCODING 78
SWIDTH 789 0
DWIDTH 15 0
BBX 14 14 2 0
BITMAP
181C
3C1C
3C1C
3E18
3E38
3738
7738
73B8
73B0
71F0
61F0
E0F0
E0F0
E060
ENDCHAR
STARTCHAR O
ENCODING 79
SWIDTH 855 0
DWIDTH 16 0
BBX 13 14 3 0
BITMAP
07C0
0C70
1838
3038
7038
6038
E038
E038
E038
E070
E060
60E0
71C0
1F00
ENDCHAR
STARTCHAR P
ENCODING 80
SWIDTH 645 0
DWIDTH 12 0
BBX 12 14 2 0
BITMAP
1FE0
3C70
3870
3870
3870
3860
79C0
7F00
7000
7000
7000
F000
F000
E000
ENDCHAR
STARTCHAR Q
ENCODING 81
SWIDTH 855 0
DWIDTH 16 0
BBX 14 18 3 -4
BITMAP
07C0
0C70
1838
3038
7038
6038
E038
E038
E038
E070
E070
60E0
71C0
1F80
01E0
00F0
0078
003C
ENDCHAR
STARTCHAR R
ENCODING 82
SWIDTH 708 0
DWIDTH 13 0
BBX 12 14 2 0
BITMAP
1FE0
3870
3870
3870
3870
38E0
7FC0
7F80
7300
7380
7180
F1C0
F1C0
E0E0
ENDCHAR
STARTCHAR S
ENCODING 83
SWIDTH 639 0
DWIDTH 12 0
BBX 11 14 2 0
BITMAP
07E0
1860
3000
3800
3C00
3F00
3F80
1FC0
0FC0
03C0
01C0
0180
C100
FE00
ENDCHAR
STARTCHAR T
ENCODING 84
SWIDTH 747 0
DWIDTH 14 0
BBX 14 14 3 0
BITMAP
FFFC
0700
0700
0700
0F00
0F00
0F00
0E00
0E00
1E00
1E00
1E00
1E00
1C00
ENDCHAR
STARTCHAR U
ENCODING 85
SWIDTH 759 0
DWIDTH 14 0
BBX 13 14 3 0
BITMAP
3838
7838
7878
7070
7070
7070
F070
E070
E0E0
E0E0
E0E0
E0C0
7180
3F00
ENDCHAR
STARTCHAR V
ENCODING 86
SWIDTH 765 0
DWIDTH 15 0
BBX 12 14 3 0
BITMAP
F010
F030
F020
7060
7040
7080
7880
7900
7900
3A00
3A00
3C00
3C00
3800
ENDCHAR
STARTCHAR W
ENCODING 87
SWIDTH 991 0
DWIDTH 19 0
BBX 16 14 4 0
BITMAP
C181
C382
C382
C384
C584
E588
ED98
E990
E9B0
F9A0
F1E0
71E0
61C0
61C0
ENDCHAR
STARTCHAR X
ENCODING 88
SWIDTH 696 0
DWIDTH 13 0
BBX 13 14 -1 0
BITMAP
1C18
1C10
0C20
0E40
0E80
0780
0700
0700
0F80
1B80
1180
21C0
61C0
C0E0
ENDCHAR
STARTCHAR Y
ENCODING 89
SWIDTH 681 0
DWIDTH 13 0
BBX 10 14 2 0
BITMAP
C040
E080
E100
6300
7200
7400
3C00
3800
3800
7800
7800
7800
7000
F000
ENDCHAR
STARTCHAR Z
ENCODING 90
SWIDTH 687 0
DWIDTH 13 0
BBX 13 14 1 0
BITMAP
1FF8
0070
00F0
00E0
01C0
0380
0700
0700
0E00
1C00
3800
3800
7000
FFE0
ENDCHAR
STARTCHAR bracketleft
ENCODING 91
SWIDTH 386 0
DWIDTH 7 0
BBX 8 17 1 -3
BITMAP
1F
1C
1C
18
38
38
38
38
38
70
70
70
70
70
E0
F8
F8
ENDCHAR
STARTCHAR backslash
ENCODING 92
SWIDTH 566 0
DWIDTH 11 0
BBX 5 17 2 -3
BITMAP
80
80
80
40
40
40
40
20
20
20
30
10
10
10
08
08
08
ENDCHAR
STARTCHAR bracketright
ENCODING 93
SWIDTH 386 0
DWIDTH 7 0
BBX 8 17 1 -3
BITMAP
1F
1F
07
0E
0E
0E
0E
0E
1C
1C
1C
1C
1C
18
38
38
F8
ENDCHAR
STARTCHAR asciicircum
ENCODING 94
SWIDTH 687 0
DWIDTH 13 0
BBX 9 11 1 2
BITMAP
0200
0200
0600
0E00
0900
1100
3100
2100
4080
4080
8080
ENDCHAR
STARTCHAR underscore
ENCODING 95
SWIDTH 500 0
DWIDTH 10 0
BBX 8 1 1 -3
BITMAP
FF
ENDCHAR
STARTCHAR grave
ENCODING 96
SWIDTH 663 0
DWIDTH 13 0
BBX 4 1 7 13
BITMAP
F0
ENDCHAR
STARTCHAR a
ENCODING 97
SWIDTH 681 0
DWIDTH 13 0
BBX 12 10 2 0
BITMAP
07F0
18F0
30E0
71E0
61E0
E3E0
EDE0
FDC0
F9C0
73C0
ENDCHAR
STARTCHAR b
ENCODING 98
SWIDTH 681 0
DWIDTH 13 0
BBX 12 14 1 0
BITMAP
1F00
1E00
3E00
3E00
3E60
3CF0
3DF0
7F70
7E70
7C60
7C60
78C0
F180
FE00
ENDCHAR
STARTCHAR c
ENCODING 99
SWIDTH 548 0
DWIDTH 10 0
BBX 9 10 2 0
BITMAP
0F80
1880
3000
6000
E000
E000
E100
E100
E300
3C00
ENDCHAR
STARTCHAR d
ENCODING 100
SWIDTH 681 0
DWIDTH 13 0
BBX 13 14 1 0
BITMAP
0078
0078
0070
0070
07F0
18F0
30F0
71E0
61E0
E3E0
EDE0
FDE0
F9C0
73C0
ENDCHAR
STARTCHAR e
ENCODING 101
SWIDTH 612 0
DWIDTH 12 0
BBX 10 10 2 0
BITMAP
0780
1DC0
38C0
71C0
F180
F300
FE00
F040
70C0
3F00
ENDCHAR
STARTCHAR f
ENCODING 102
SWIDTH 464 0
DWIDTH 9 0
BBX 11 18 1 -4
BITMAP
03E0
0E20
1E00
1C00
7F80
3C00
3C00
3800
3800
3800
7800
7800
7800
7000
7000
F000
F000
F000
ENDCHAR
STARTCHAR g
ENCODING 103
SWIDTH 674 0
DWIDTH 13 0
BBX 12 14 1 -4
BITMAP
07F0
08E0
18E0
30E0
71E0
63E0
64C0
7CC0
78C0
71C0
01C0
0180
C300
FE00
ENDCHAR
STARTCHAR h
ENCODING 104
SWIDTH 675 0
DWIDTH 13 0
BBX 12 14 1 0
BITMAP
1E00
1C00
3C00
3C00
3CE0
3DF0
3BF0
7AE0
7CE0
78E0
78E0
70C0
F1C0
F1C0
ENDCHAR
STARTCHAR i
ENCODING 105
SWIDTH 343 0
DWIDTH 7 0
BBX 7 14 1 0
BITMAP
3E
00
00
00
3C
3C
3C
78
78
78
78
70
F0
F0
ENDCHAR
STARTCHAR j
ENCODING 106
SWIDTH 407 0
DWIDTH 8 0
BBX 11 18 -1 -4
BITMAP
01E0
0000
0000
0000
01C0
0180
0380
0380
0380
0380
0300
0300
0700
0700
0600
0600
8C00
F800
ENDCHAR
STARTCHAR k
ENCODING 107
SWIDTH 666 0
DWIDTH 13 0
BBX 11 14 2 0
BITMAP
1C00
1C00
3C00
3C00
3C60
3840
3880
7900
7B00
7F00
7380
7380
F1C0
F1C0
ENDCHAR
STARTCHAR l
ENCODING 108
SWIDTH 343 0
DWIDTH 7 0
BBX 7 14 1 0
BITMAP
1E
1E
1C
3C
3C
3C
3C
78
78
78
78
70
F0
F0
ENDCHAR
STARTCHAR m
ENCODING 109
SWIDTH 991 0
DWIDTH 19 0
BBX 18 10 1 0
BITMAP
3CE380
39E7C0
3BEF80
7EEB80
7CF180
79E380
71E380
71C300
F1C300
F3C700
ENDCHAR
STARTCHAR n
ENCODING 110
SWIDTH 675 0
DWIDTH 13 0
BBX 12 10 1 0
BITMAP
3CE0
39F0
3BE0
7EE0
7CE0
78E0
78E0
70C0
F1C0
F1C0
ENDCHAR
STARTCHAR o
ENCODING 111
SWIDTH 663 0
DWIDTH 13 0
BBX 10 10 2 0
BITMAP
0F00
3380
71C0
61C0
E1C0
E180
E380
E300
E600
3C00
ENDCHAR
STARTCHAR p
ENCODING 112
SWIDTH 681 0
DWIDTH 13 0
BBX 13 14 1 -4
BITMAP
1E70
1CF8
3DF8
3D38
3A38
3C30
3870
7860
78C0
7F00
7000
7000
F000
F000
ENDCHAR
STARTCHAR q
ENCODING 113
SWIDTH 681 0
DWIDTH 13 0
BBX 12 14 2 -4
BITMAP
07F0
18F0
30F0
61E0
61E0
E3E0
EDE0
FDE0
F9C0
73C0
03C0
03C0
03C0
0380
ENDCHAR
STARTCHAR r
ENCODING 114
SWIDTH 542 0
DWIDTH 10 0
BBX 10 10 2 0
BITMAP
38C0
3980
7A80
7C00
7800
7000
7000
F000
F000
F000
ENDCHAR
STARTCHAR s
ENCODING 115
SWIDTH 527 0
DWIDTH 10 0
BBX 10 10 1 0
BITMAP
0FC0
1C40
3C00
3E00
3F00
1F80
0F80
0780
C700
FE00
ENDCHAR
STARTCHAR t
ENCODING 116
SWIDTH 437 0
DWIDTH 8 0
BBX 7 13 2 0
BITMAP
1C
38
38
FE
78
70
70
70
E0
E0
E0
FC
78
ENDCHAR
STARTCHAR u
ENCODING 117
SWIDTH 675 0
DWIDTH 13 0
BBX 12 10 2 0
BITMAP
38F0
38F0
30E0
71E0
71E0
73E0
75E0
7DC0
F9C0
73C0
ENDCHAR
STARTCHAR v
ENCODING 118
SWIDTH 630 0
DWIDTH 12 0
BBX 11 10 2 0
BITMAP
F020
F040
F040
7880
7900
7900
7A00
7E00
3C00
3800
ENDCHAR
STARTCHAR w
ENCODING 119
SWIDTH 878 0
DWIDTH 17 0
BBX 15 10 3 0
BITMAP
C1C2
C1C4
C2C4
C2CC
C4C8
C4D8
E8D0
F0F0
F0E0
E0E0
ENDCHAR
STARTCHAR x
ENCODING 120
SWIDTH 563 0
DWIDTH 11 0
BBX 10 10 -1 0
BITMAP
78C0
3C80
3D00
1E00
1E00
1E00
1F00
2F00
4700
C780
ENDCHAR
STARTCHAR y
ENCODING 121
SWIDTH 633 0
DWIDTH 12 0
BBX 11 14 0 -4
BITMAP
7020
7040
78C0
7880
7900
3B00
3A00
3C00
3C00
3800
3000
3000
6000
C000
ENDCHAR
STARTCHAR z
ENCODING 122
SWIDTH 630 0
DWIDTH 12 0
BBX 12 10 1 0
BITMAP
3FF0
00E0
01C0
0380
0700
0E00
1C00
3800
7000
FFE0
ENDCHAR
STARTCHAR braceleft
ENCODING 123
SWIDTH 386 0
DWIDTH 7 0
BBX 7 17 2 -3
BITMAP
0E
1E
3C
3C
1C
1C
18
78
E0
F0
70
70
70
F0
F0
F0
70
ENDCHAR
STARTCHAR bar
ENCODING 124
SWIDTH 259 0
DWIDTH 5 0
BBX 6 17 1 -3
BITMAP
04
04
08
08
08
10
10
10
30
20
20
20
40
40
40
80
80
ENDCHAR
STARTCHAR braceright
ENCODING 125
SWIDTH 386 0
DWIDTH 7 0
BBX 7 17 1 -3
BITMAP
1C
1E
1E
1E
1C
3C
1C
1E
0E
3C
30
70
70
78
78
F0
E0
ENDCHAR
STARTCHAR asciitilde
ENCODING 126
SWIDTH 687 0
DWIDTH 13 0
BBX 12 5 2 3
BITMAP
3830
4C30
4620
8360
81C0
ENDCHAR
STARTCHAR space
ENCODING 160
SWIDTH 343 0
DWIDTH 6 0
BBX 0 0 0 0
BITMAP
ENDCHAR
STARTCHAR exclamdown
ENCODING 161
SWIDTH 343 0
DWIDTH 7 0
BBX 6 14 1 -4
BITMAP
3C
00
00
00
38
30
30
30
70
70
70
F0
F0
E0
ENDCHAR
STARTCHAR cent
ENCODING 162
SWIDTH 687 0
DWIDTH 13 0
BBX 10 14 3 0
BITMAP
0300
0300
0FC0
3F80
3080
7000
E000
E000
E000
E080
E300
7F00
1800
1000
ENDCHAR
STARTCHAR sterling
ENCODING 163
SWIDTH 687 0
DWIDTH 13 0
BBX 12 14 2 0
BITMAP
03F0
0710
0700
0F00
0E00
0E00
1E00
3F80
1E00
1C00
1C00
3800
3000
FFC0
ENDCHAR
STARTCHAR currency
ENCODING 164
SWIDTH 687 0
DWIDTH 13 0
BBX 15 14 0 0
BITMAP
0002
3006
1008
09D0
0E60
0C20
1830
1830
0820
0860
1CE0
27B0
C018
8000
ENDCHAR
STARTCHAR yen
ENCODING 165
SWIDTH 687 0
DWIDTH 13 0
BBX 11 14 3 0
BITMAP
6020
7040
3080
3980
3B00
1A00
1C00
7F80
3C00
FF00
3C00
3800
3800
3800
ENDCHAR
STARTCHAR brokenbar
ENCODING 166
SWIDTH 259 0
DWIDTH 5 0
BBX 6 17 1 -3
BITMAP
04
04
08
08
08
08
18
00
00
00
60
40
40
40
40
80
80
ENDCHAR
STARTCHAR section
ENCODING 167
SWIDTH 687 0
DWIDTH 13 0
BBX 12 18 2 -4
BITMAP
07F0
1C30
1C00
3F00
3F80
1FC0
1FE0
13E0
2060
3060
7E40
3F80
3FC0
0FC0
07C0
03C0
C380
FE00
ENDCHAR
STARTCHAR dieresis
ENCODING 168
SWIDTH 663 0
DWIDTH 13 0
BBX 7 1 6 13
BITMAP
EE
ENDCHAR
STARTCHAR copyright
ENCODING 169
SWIDTH 834 0
DWIDTH 16 0
BBX 12 14 3 0
BITMAP
0F00
3080
4040
47E0
8850
9010
9010
A010
B010
9010
4FA0
4040
3080
0F00
ENDCHAR
STARTCHAR ordfeminine
ENCODING 170
SWIDTH 539 0
DWIDTH 10 0
BBX 9 8 3 6
BITMAP
1F80
2780
6780
CF00
DF00
FF00
F700
6F00
ENDCHAR
STARTCHAR guillemotleft
ENCODING 171
SWIDTH 633 0
DWIDTH 12 0
BBX 11 8 2 1
BITMAP
0420
0C60
1080
2300
F700
7380
3980
11C0
ENDCHAR
STARTCHAR logicalnot
ENCODING 172
SWIDTH 687 0
DWIDTH 13 0
BBX 11 7 3 2
BITMAP
FFE0
0060
0060
0040
0040
0040
0040
ENDCHAR
STARTCHAR hyphen
ENCODING 173
SWIDTH 289 0
DWIDTH 5 0
BBX 5 1 1 6
BITMAP
F8
ENDCHAR
STARTCHAR registered
ENCODING 174
SWIDTH 691 0
DWIDTH 13 0
BBX 8 10 4 4
BITMAP
3C
42
BF
BB
B3
BD
A5
A5
42
3C
ENDCHAR
STARTCHAR macron
ENCODING 175
SWIDTH 663 0
DWIDTH 13 0
BBX 7 1 6 13
BITMAP
FE
ENDCHAR
STARTCHAR degree
ENCODING 176
SWIDTH 241 0
DWIDTH 5 0
BBX 1 3 4 11
BITMAP
80
80
80
ENDCHAR
STARTCHAR plusminus
ENCODING 177
SWIDTH 687 0
DWIDTH 13 0
BBX 13 12 1 0
BITMAP
0080
0080
0080
0100
7FF8
0100
0200
0200
0200
0400
0000
FFF0
ENDCHAR
STARTCHAR twosuperior
ENCODING 178
SWIDTH 539 0
DWIDTH 8 0
BBX 7 8 -12 6
BITMAP
7C
06
06
0C
18
20
60
FC
ENDCHAR
STARTCHAR threesuperior
ENCODING 179
SWIDTH 539 0
DWIDTH 8 0
BBX 7 8 -12 6
BITMAP
7C
06
0E
78
0C
0C
0C
F8
ENDCHAR
STARTCHAR acute
ENCODING 180
SWIDTH 663 0
DWIDTH 13 0
BBX 6 1 7 13
BITMAP
FC
ENDCHAR
STARTCHAR mu
ENCODING 181
SWIDTH 681 0
DWIDTH 13 0
BBX 13 13 1 -3
BITMAP
1C78
3C78
3C70
3CF0
38F0
39F0
7AF0
7EE0
7CE0
79E0
7000
F000
F000
ENDCHAR
STARTCHAR paragraph
ENCODING 182
SWIDTH 687 0
DWIDTH 13 0
BBX 9 17 3 -3
BITMAP
7F80
FD80
F900
FB00
FB00
FB00
7300
1200
1200
3200
2200
2600
2400
2400
4400
4400
4400
ENDCHAR
STARTCHAR periodcentered
ENCODING 183
SWIDTH 343 0
DWIDTH 13 0
BBX 3 1 6 6
BITMAP
E0
ENDCHAR
STARTCHAR cedilla
ENCODING 184
SWIDTH 663 0
DWIDTH 13 0
BBX 4 4 4 -4
BITMAP
30
60
10
E0
ENDCHAR
STARTCHAR onesuperior
ENCODING 185
SWIDTH 539 0
DWIDTH 8 0
BBX 4 8 -13 6
BITMAP
F0
70
60
60
60
60
E0
C0
ENDCHAR
STARTCHAR ordmasculine
ENCODING 186
SWIDTH 539 0
DWIDTH 10 0
BBX 10 8 2 6
BITMAP
0F80
31C0
60C0
60C0
C180
C180
E300
7C00
ENDCHAR
STARTCHAR guillemotright
ENCODING 187
SWIDTH 633 0
DWIDTH 12 0
BBX 11 8 1 1
BITMAP
7100
3380
39C0
1DE0
1880
2100
C600
8400
ENDCHAR
STARTCHAR onequarter
ENCODING 188
SWIDTH 1089 0
DWIDTH 18 0
BBX 15 14 7 0
BITMAP
F00C
7018
6030
6020
6040
6080
E106
C20E
0414
082C
106C
30FE
600C
C018
ENDCHAR
STARTCHAR onehalf
ENCODING 189
SWIDTH 1089 0
DWIDTH 18 0
BBX 15 14 7 0
BITMAP
F00C
7018
6030
6020
6040
6080
E17C
C206
0406
080C
1018
3020
6060
C0FC
ENDCHAR
STARTCHAR threequarters
ENCODING 190
SWIDTH 1149 0
DWIDTH 18 0
BBX 17 14 9 0
BITMAP
7C0300
060600
0E0C00
780800
0C1000
0C2000
0C4180
F88380
010500
020B00
041B00
0C3F80
180300
300600
ENDCHAR
STARTCHAR questiondown
ENCODING 191
SWIDTH 539 0
DWIDTH 10 0
BBX 9 14 0 -4
BITMAP
0780
0000
0000
0000
0000
0F00
0E00
1C00
3800
7000
E000
E000
E080
3F80
ENDCHAR
STARTCHAR Agrave
ENCODING 192
SWIDTH 771 0
DWIDTH 15 0
BBX 13 16 -1 0
BITMAP
01E0
0000
01C0
01E0
03E0
07E0
05E0
0CE0
08F0
18F0
10F0
30F0
3FF0
6078
4078
8078
ENDCHAR
STARTCHAR Aacute
ENCODING 193
SWIDTH 771 0
DWIDTH 15 0
BBX 13 16 -1 0
BITMAP
01F8
0000
01C0
01E0
03E0
07E0
05E0
0CE0
08F0
18F0
10F0
30F0
3FF0
6078
4078
8078
ENDCHAR
STARTCHAR Acircumflex
ENCODING 194
SWIDTH 771 0
DWIDTH 15 0
BBX 13 16 -1 0
BITMAP
07F0
0000
01C0
01E0
03E0
07E0
05E0
0CE0
08F0
18F0
10F0
30F0
3FF0
6078
4078
8078
ENDCHAR
STARTCHAR Atilde
ENCODING 195
SWIDTH 771 0
DWIDTH 15 0
BBX 13 16 -1 0
BITMAP
03F8
0000
01C0
01E0
03E0
07E0
05E0
0CE0
08F0
18F0
10F0
30F0
3FF0
6078
4078
8078
ENDCHAR
STARTCHAR Adieresis
ENCODING 196
SWIDTH 771 0
DWIDTH 15 0
BBX 13 16 -1 0
BITMAP
03B8
0000
01C0
01E0
03E0
07E0
05E0
0CE0
08F0
18F0
10F0
30F0
3FF0
6078
4078
8078
ENDCHAR
STARTCHAR Aring
ENCODING 197
SWIDTH 771 0
DWIDTH 15 0
BBX 13 16 -1 0
BITMAP
00E0
0000
01C0
01E0
03E0
07E0
05E0
0CE0
08F0
18F0
10F0
30F0
3FF0
6078
4078
8078
ENDCHAR
STARTCHAR AE
ENCODING 198
SWIDTH 1004 0
DWIDTH 19 0
BBX 19 14 -1 0
BITMAP
003FE0
007800
00F800
01F800
017800
027000
04FF80
0CF000
0FF000
10F000
30F000
61E000
61E000
C1FF80
ENDCHAR
STARTCHAR Ccedilla
ENCODING 199
SWIDTH 737 0
DWIDTH 14 0
BBX 14 18 2 -4
BITMAP
03FC
0E0C
1800
3800
7000
6000
E000
E000
E000
E000
E000
7000
7830
1FF0
0400
0C00
0200
1C00
ENDCHAR
STARTCHAR Egrave
ENCODING 200
SWIDTH 642 0
DWIDTH 12 0
BBX 12 16 2 0
BITMAP
0780
0000
1FF0
3C00
3C00
3C00
3800
3800
7FC0
7800
7800
7800
7000
F000
F000
FFC0
ENDCHAR
STARTCHAR Eacute
ENCODING 201
SWIDTH 642 0
DWIDTH 12 0
BBX 12 16 2 0
BITMAP
07E0
0000
1FF0
3C00
3C00
3C00
3800
3800
7FC0
7800
7800
7800
7000
F000
F000
FFC0
ENDCHAR
STARTCHAR Ecircumflex
ENCODING 202
SWIDTH 642 0
DWIDTH 12 0
BBX 12 16 2 0
BITMAP
0FE0
0000
1FF0
3C00
3C00
3C00
3800
3800
7FC0
7800
7800
7800
7000
F000
F000
FFC0
ENDCHAR
STARTCHAR Edieresis
ENCODING 203
SWIDTH 642 0
DWIDTH 12 0
BBX 12 16 2 0
BITMAP
0EE0
0000
1FF0
3C00
3C00
3C00
3800
3800
7FC0
7800
7800
7800
7000
F000
F000
FFC0
ENDCHAR
STARTCHAR Igrave
ENCODING 204
SWIDTH 361 0
DWIDTH 7 0
BBX 7 16 2 0
BITMAP
1E
00
3C
3C
3C
38
38
38
78
78
70
70
70
F0
F0
F0
ENDCHAR
STARTCHAR Iacute
ENCODING 205
SWIDTH 361 0
DWIDTH 7 0
BBX 8 16 2 0
BITMAP
3F
00
3C
3C
3C
38
38
38
78
78
70
70
70
F0
F0
F0
ENDCHAR
STARTCHAR Icircumflex
ENCODING 206
SWIDTH 361 0
DWIDTH 7 0
BBX 8 16 2 0
BITMAP
7F
00
3C
3C
3C
38
38
38
78
78
70
70
70
F0
F0
F0
ENDCHAR
STARTCHAR Idieresis
ENCODING 207
SWIDTH 361 0
DWIDTH 7 0
BBX 8 16 2 0
BITMAP
77
00
3C
3C
3C
38
38
38
78
78
70
70
70
F0
F0
F0
ENDCHAR
STARTCHAR Eth
ENCODING 208
SWIDTH 822 0
DWIDTH 16 0
BBX 16 14 1 0
BITMAP
1FFC
1F0E
1F07
1F07
1E07
3E07
FFC7
3C07
3C0E
780E
781C
7838
7870
7FC0
ENDCHAR
STARTCHAR Ntilde
ENCODING 209
SWIDTH 789 0
DWIDTH 15 0
BBX 14 16 2 0
BITMAP
07F0
0000
181C
3C1C
3C1C
3E18
3E38
3738
7738
73B8
73B0
71F0
61F0
E0F0
E0F0
E060
ENDCHAR
STARTCHAR Ograve
ENCODING 210
SWIDTH 855 0
DWIDTH 16 0
BBX 13 16 3 0
BITMAP
03C0
0000
07C0
0C70
1838
3038
7038
6038
E038
E038
E038
E070
E060
60E0
71C0
1F00
ENDCHAR
STARTCHAR Oacute
ENCODING 211
SWIDTH 855 0
DWIDTH 16 0
BBX 13 16 3 0
BITMAP
03F0
0000
07C0
0C70
1838
3038
7038
6038
E038
E038
E038
E070
E060
60E0
71C0
1F00
ENDCHAR
STARTCHAR Ocircumflex
ENCODING 212
SWIDTH 855 0
DWIDTH 16 0
BBX 13 16 3 0
BITMAP
07F0
0000
07C0
0C70
1838
3038
7038
6038
E038
E038
E038
E070
E060
60E0
71C0
1F00
ENDCHAR
STARTCHAR Otilde
ENCODING 213
SWIDTH 855 0
DWIDTH 16 0
BBX 13 16 3 0
BITMAP
07F0
0000
07C0
0C70
1838
3038
7038
6038
E038
E038
E038
E070
E060
60E0
71C0
1F00
ENDCHAR
STARTCHAR Odieresis
ENCODING 214
SWIDTH 855 0
DWIDTH 16 0
BBX 13 16 3 0
BITMAP
0770
0000
07C0
0C70
1838
3038
7038
6038
E038
E038
E038
E070
E060
60E0
71C0
1F00
ENDCHAR
STARTCHAR multiply
ENCODING 215
SWIDTH 687 0
DWIDTH 13 0
BBX 13 12 1 0
BITMAP
1008
3018
1020
0840
0580
0700
0700
0D00
1080
2040
C060
8040
ENDCHAR
STARTCHAR Oslash
ENCODING 216
SWIDTH 855 0
DWIDTH 16 0
BBX 16 14 4 0
BITMAP
03E3
063E
0C1C
181C
383C
307C
709C
711C
761C
7C38
7830
3070
78E0
CF80
ENDCHAR
STARTCHAR Ugrave
ENCODING 217
SWIDTH 759 0
DWIDTH 14 0
BBX 13 16 3 0
BITMAP
03C0
0000
3838
7838
7878
7070
7070
7070
F070
E070
E0E0
E0E0
E0E0
E0C0
7180
3F00
ENDCHAR
STARTCHAR Uacute
ENCODING 218
SWIDTH 759 0
DWIDTH 14 0
BBX 13 16 3 0
BITMAP
07E0
0000
3838
7838
7878
7070
7070
7070
F070
E070
E0E0
E0E0
E0E0
E0C0
7180
3F00
ENDCHAR
STARTCHAR Ucircumflex
ENCODING 219
SWIDTH 759 0
DWIDTH 14 0
BBX 13 16 3 0
BITMAP
0FE0
0000
3838
7838
7878
7070
7070
7070
F070
E070
E0E0
E0E0
E0E0
E0C0
7180
3F00
ENDCHAR
STARTCHAR Udieresis
ENCODING 220
SWIDTH 759 0
DWIDTH 14 0
BBX 13 16 3 0
BITMAP
0EE0
0000
3838
7838
7878
7070
7070
7070
F070
E070
E0E0
E0E0
E0E0
E0C0
7180
3F00
ENDCHAR
STARTCHAR Yacute
ENCODING 221
SWIDTH 681 0
DWIDTH 13 0
BBX 10 16 2 0
BITMAP
1F80
0000
C040
E080
E100
6300
7200
7400
3C00
3800
3800
7800
7800
7800
7000
F000
ENDCHAR
STARTCHAR Thorn
ENCODING 222
SWIDTH 645 0
DWIDTH 12 0
BBX 12 14 1 0
BITMAP
1C00
1C00
3C00
3FE0
3870
3870
3870
7870
78E0
79C0
7F00
7000
F000
F000
ENDCHAR
STARTCHAR germandbls
ENCODING 223
SWIDTH 708 0
DWIDTH 13 0
BBX 13 18 1 -4
BITMAP
03E0
0E70
0E70
1E70
1CE0
1DC0
1DC0
3DE0
3DF0
38F8
3878
7A38
7A30
7BE0
7000
7000
F000
F000
ENDCHAR
STARTCHAR agrave
ENCODING 224
SWIDTH 681 0
DWIDTH 13 0
BBX 12 12 2 0
BITMAP
03C0
0000
07F0
18F0
30E0
71E0
61E0
E3E0
EDE0
FDC0
F9C0
73C0
ENDCHAR
STARTCHAR aacute
ENCODING 225
SWIDTH 681 0
DWIDTH 13 0
BBX 12 12 2 0
BITMAP
07E0
0000
07F0
18F0
30E0
71E0
61E0
E3E0
EDE0
FDC0
F9C0
73C0
ENDCHAR
STARTCHAR acircumflex
ENCODING 226
SWIDTH 681 0
DWIDTH 13 0
BBX 12 12 2 0
BITMAP
0FE0
0000
07F0
18F0
30E0
71E0
61E0
E3E0
EDE0
FDC0
F9C0
73C0
ENDCHAR
STARTCHAR atilde
ENCODING 227
SWIDTH 681 0
DWIDTH 13 0
BBX 12 12 2 0
BITMAP
07F0
0000
07F0
18F0
30E0
71E0
61E0
E3E0
EDE0
FDC0
F9C0
73C0
ENDCHAR
STARTCHAR adieresis
ENCODING 228
SWIDTH 681 0
DWIDTH 13 0
BBX 12 12 2 0
BITMAP
0EE0
0000
07F0
18F0
30E0
71E0
61E0
E3E0
EDE0
FDC0
F9C0
73C0
ENDCHAR
STARTCHAR aring
ENCODING 229
SWIDTH 681 0
DWIDTH 13 0
BBX 12 12 2 0
BITMAP
01C0
0000
07F0
18F0
30E0
71E0
61E0
E3E0
EDE0
FDC0
F9C0
73C0
ENDCHAR
STARTCHAR ae
ENCODING 230
SWIDTH 987 0
DWIDTH 19 0
BBX 17 10 2 0
BITMAP
07FF00
18FB80
30F180
71E300
61E700
E3FC00
E5E080
FDE080
F8E380
70FE00
ENDCHAR
STARTCHAR ccedilla
ENCODING 231
SWIDTH 548 0
DWIDTH 10 0
BBX 9 14 2 -4
BITMAP
0F80
1880
3000
6000
E000
E000
E100
E100
E300
3C00
1000
3000
0800
7000
ENDCHAR
STARTCHAR egrave
ENCODING 232
SWIDTH 612 0
DWIDTH 12 0
BBX 10 12 2 0
BITMAP
0780
0000
0780
1DC0
38C0
71C0
F180
F300
FE00
F040
70C0
3F00
ENDCHAR
STARTCHAR eacute
ENCODING 233
SWIDTH 612 0
DWIDTH 12 0
BBX 11 12 2 0
BITMAP
07E0
0000
0780
1DC0
38C0
71C0
F180
F300
FE00
F040
70C0
3F00
ENDCHAR
STARTCHAR ecircumflex
ENCODING 234
SWIDTH 612 0
DWIDTH 12 0
BBX 11 12 2 0
BITMAP
0FE0
0000
0780
1DC0
38C0
71C0
F180
F300
FE00
F040
70C0
3F00
ENDCHAR
STARTCHAR edieresis
ENCODING 235
SWIDTH 612 0
DWIDTH 12 0
BBX 11 12 2 0
BITMAP
0EE0
0000
0780
1DC0
38C0
71C0
F180
F300
FE00
F040
70C0
3F00
ENDCHAR
STARTCHAR igrave
ENCODING 236
SWIDTH 343 0
DWIDTH 7 0
BBX 7 12 1 0
BITMAP
1E
00
3C
3C
38
78
78
78
78
70
F0
F0
ENDCHAR
STARTCHAR iacute
ENCODING 237
SWIDTH 343 0
DWIDTH 7 0
BBX 9 12 1 0
BITMAP
1F80
0000
3C00
3C00
3800
7800
7800
7800
7800
7000
F000
F000
ENDCHAR
STARTCHAR icircumflex
ENCODING 238
SWIDTH 343 0
DWIDTH 7 0
BBX 8 12 1 0
BITMAP
7F
00
3C
3C
38
78
78
78
78
70
F0
F0
ENDCHAR
STARTCHAR idieresis
ENCODING 239
SWIDTH 343 0
DWIDTH 7 0
BBX 9 12 1 0
BITMAP
3B80
0000
3C00
3C00
3800
7800
7800
7800
7800
7000
F000
F000
ENDCHAR
STARTCHAR eth
ENCODING 240
SWIDTH 663 0
DWIDTH 13 0
BBX 9 17 2 0
BITMAP
0100
0300
0200
3E00
1F00
0F00
1380
2380
2F80
3380
7180
6180
E180
E380
E300
E600
3C00
ENDCHAR
STARTCHAR ntilde
ENCODING 241
SWIDTH 675 0
DWIDTH 13 0
BBX 12 12 1 0
BITMAP
07F0
0000
3CE0
39F0
3BE0
7EE0
7CE0
78E0
78E0
70C0
F1C0
F1C0
ENDCHAR
STARTCHAR ograve
ENCODING 242
SWIDTH 663 0
DWIDTH 13 0
BBX 10 12 2 0
BITMAP
0780
0000
0F00
3380
71C0
61C0
E1C0
E180
E380
E300
E600
3C00
ENDCHAR
STARTCHAR oacute
ENCODING 243
SWIDTH 663 0
DWIDTH 13 0
BBX 10 12 2 0
BITMAP
0FC0
0000
0F00
3380
71C0
61C0
E1C0
E180
E380
E300
E600
3C00
ENDCHAR
STARTCHAR ocircumflex
ENCODING 244
SWIDTH 663 0
DWIDTH 13 0
BBX 10 12 2 0
BITMAP
1FC0
0000
0F00
3380
71C0
61C0
E1C0
E180
E380
E300
E600
3C00
ENDCHAR
STARTCHAR otilde
ENCODING 245
SWIDTH 663 0
DWIDTH 13 0
BBX 10 12 2 0
BITMAP
1FC0
0000
0F00
3380
71C0
61C0
E1C0
E180
E380
E300
E600
3C00
ENDCHAR
STARTCHAR odieresis
ENCODING 246
SWIDTH 663 0
DWIDTH 13 0
BBX 10 12 2 0
BITMAP
1DC0
0000
0F00
3380
71C0
61C0
E1C0
E180
E380
E300
E600
3C00
ENDCHAR
STARTCHAR divide
ENCODING 247
SWIDTH 687 0
DWIDTH 13 0
BBX 11 12 2 0
BITMAP
0700
0000
0000
0000
0000
FFE0
0000
0000
0000
0000
0000
1C00
ENDCHAR
STARTCHAR oslash
ENCODING 248
SWIDTH 663 0
DWIDTH 13 0
BBX 11 10 2 0
BITMAP
0F60
33C0
71C0
63C0
E7C0
ED80
FB80
F300
E600
FC00
ENDCHAR
STARTCHAR ugrave
ENCODING 249
SWIDTH 675 0
DWIDTH 13 0
BBX 12 12 2 0
BITMAP
03C0
0000
38F0
38F0
30E0
71E0
71E0
73E0
75E0
7DC0
F9C0
73C0
ENDCHAR
STARTCHAR uacute
ENCODING 250
SWIDTH 675 0
DWIDTH 13 0
BBX 12 12 2 0
BITMAP
07E0
0000
38F0
38F0
30E0
71E0
71E0
73E0
75E0
7DC0
F9C0
73C0
ENDCHAR
STARTCHAR ucircumflex
ENCODING 251
SWIDTH 675 0
DWIDTH 13 0
BBX 12 12 2 0
BITMAP
0FE0
0000
38F0
38F0
30E0
71E0
71E0
73E0
75E0
7DC0
F9C0
73C0
ENDCHAR
STARTCHAR udieresis
ENCODING 252
SWIDTH 675 0
DWIDTH 13 0
BBX 12 12 2 0
BITMAP
0EE0
0000
38F0
38F0
30E0
71E0
71E0
73E0
75E0
7DC0
F9C0
73C0
ENDCHAR
STARTCHAR yacute
ENCODING 253
SWIDTH 633 0
DWIDTH 12 0
BBX 11 16 0 -4
BITMAP
07E0
0000
7020
7040
78C0
7880
7900
3B00
3A00
3C00
3C00
3800
3000
3000
6000
C000
ENDCHAR
STARTCHAR thorn
ENCODING 254
SWIDTH 681 0
DWIDTH 13 0
BBX 13 18 1 -4
BITMAP
1F00
1F00
1F00
1F00
1E30
3E78
3EF8
3EB8
3F38
3E30
7E30
7C60
7CC0
7F00
7000
F000
F000
F000
ENDCHAR
STARTCHAR ydieresis
ENCODING 255
SWIDTH 633 0
DWIDTH 12 0
BBX 11 16 0 -4
BITMAP
0EE0
0000
7020
7040
78C0
7880
7900
3B00
3A00
3C00
3C00
3800
3000
3000
6000
C000
ENDCHAR
STARTCHAR uni0400
ENCODING 1024
SWIDTH 642 0
DWIDTH 12 0
BBX 12 16 2 0
BITMAP
0780
0000
1FF0
3C00
3C00
3C00
3800
3800
7FC0
7800
7800
7800
7000
F000
F000
FFC0
ENDCHAR
STARTCHAR afii10023
ENCODING 1025
SWIDTH 642 0
DWIDTH 12 0
BBX 12 16 2 0
BITMAP
0EE0
0000
1FF0
3C00
3C00
3C00
3800
3800
7FC0
7800
7800
7800
7000
F000
F000
FFC0
ENDCHAR
STARTCHAR afii10051
ENCODING 1026
SWIDTH 947 0
DWIDTH 18 0
BBX 17 14 3 0
BITMAP
FFFE00
078000
078000
078000
078000
077E00
0FC700
0F8780
0F0780
0E0780
0E0F80
1E0F00
1E1E00
1E7800
ENDCHAR
STARTCHAR afii10052
ENCODING 1027
SWIDTH 631 0
DWIDTH 12 0
BBX 12 17 2 0
BITMAP
00E0
0380
0000
1FF0
3C00
3C00
3C00
3800
3800
7800
7800
7800
7000
7000
F000
F000
F000
ENDCHAR
STARTCHAR afii10053
ENCODING 1028
SWIDTH 736 0
DWIDTH 14 0
BBX 14 14 2 0
BITMAP
03FC
0E0C
1800
3800
7000
6000
FF80
E000
E000
E000
E000
7000
7830
1FF0
ENDCHAR
STARTCHAR afii10054
ENCODING 1029
SWIDTH 639 0
DWIDTH 12 0
BBX 11 14 2 0
BITMAP
07E0
1860
3000
3800
3C00
3F00
3F80
1FC0
0FC0
03C0
01C0
0180
C100
FE00
ENDCHAR
STARTCHAR afii10055
ENCODING 1030
SWIDTH 361 0
DWIDTH 7 0
BBX 6 14 2 0
BITMAP
3C
3C
3C
38
38
38
78
78
70
70
70
F0
F0
F0
ENDCHAR
STARTCHAR afii10056
ENCODING 1031
SWIDTH 361 0
DWIDTH 7 0
BBX 8 16 2 0
BITMAP
77
00
3C
3C
3C
38
38
38
78
78
70
70
70
F0
F0
F0
ENDCHAR
STARTCHAR afii10057
ENCODING 1032
SWIDTH 502 0
DWIDTH 10 0
BBX 11 17 0 -3
BITMAP
01E0
01E0
01E0
01C0
03C0
03C0
03C0
03C0
0380
0380
0780
0780
0780
0700
0700
8E00
FC00
ENDCHAR
STARTCHAR afii10058
ENCODING 1033
SWIDTH 1210 0
DWIDTH 23 0
BBX 22 14 0 0
BITMAP
03FF80
030780
030780
070700
060700
060F00
060FE0
060F38
0E0E1C
0C1E1C
0C1E1C
181E1C
381E38
E01FF0
ENDCHAR
STARTCHAR afii10059
ENCODING 1034
SWIDTH 1210 0
DWIDTH 23 0
BBX 20 14 2 0
BITMAP
1C1E00
3C1E00
3C1E00
3C1C00
3C1C00
383C00
7FFF80
783CE0
783870
707870
707870
F07870
F078E0
F07FC0
ENDCHAR
STARTCHAR afii10060
ENCODING 1035
SWIDTH 947 0
DWIDTH 18 0
BBX 17 14 3 0
BITMAP
FFFE00
078000
078000
078000
078000
077E00
0FC700
0F8780
0F0780
0E0780
0E0F80
1E0F00
1E0F00
1E0F00
ENDCHAR
STARTCHAR afii10061
ENCODING 1036
SWIDTH 736 0
DWIDTH 14 0
BBX 12 17 2 0
BITMAP
00E0
0380
0000
1C30
3C20
3C40
3CC0
3D80
3900
7B00
7F00
7B80
79C0
71C0
F0E0
F0E0
F070
ENDCHAR
STARTCHAR afii10062
ENCODING 1038
SWIDTH 789 0
DWIDTH 15 0
BBX 13 16 2 0
BITMAP
0FE0
0000
7808
7818
3810
3C30
3C20
1C40
1EC0
1E80
0F00
0E00
0600
0400
1800
F000
ENDCHAR
STARTCHAR afii10145
ENCODING 1039
SWIDTH 789 0
DWIDTH 15 0
BBX 15 18 2 -4
BITMAP
1C1E
3C1E
3C1E
3C1C
3C1C
383C
783C
783C
7838
7078
7078
F078
F078
FFF0
0F00
0F00
0F00
0E00
ENDCHAR
STARTCHAR afii10017
ENCODING 1040
SWIDTH 789 0
DWIDTH 15 0
BBX 13 14 -1 0
BITMAP
01C0
01E0
03E0
07E0
05E0
0CE0
08F0
18F0
10F0
30F0
3FF0
6078
4078
8078
ENDCHAR
STARTCHAR afii10018
ENCODING 1041
SWIDTH 684 0
DWIDTH 13 0
BBX 12 14 1 0
BITMAP
1FF0
3C00
3C00
3C00
3800
3800
7F00
79C0
78E0
78E0
70E0
F0E0
F1C0
FF80
ENDCHAR
STARTCHAR afii10019
ENCODING 1042
SWIDTH 684 0
DWIDTH 13 0
BBX 12 14 1 0
BITMAP
1FE0
3C70
3C70
3C70
3860
3840
7880
78C0
7FE0
78E0
7060
F060
F0C0
FF80
ENDCHAR
STARTCHAR afii10020
ENCODING 1043
SWIDTH 631 0
DWIDTH 12 0
BBX 12 14 2 0
BITMAP
1FF0
3C00
3C00
3C00
3800
3800
7800
7800
7800
7000
7000
F000
F000
F000
ENDCHAR
STARTCHAR afii10021
ENCODING 1044
SWIDTH 789 0
DWIDTH 15 0
BBX 17 18 0 -4
BITMAP
01FF80
018780
030780
030700
020700
020F00
020F00
060F00
060E00
041E00
0C1E00
081E00
181E00
7FFF00
781E00
701E00
701E00
F01C00
ENDCHAR
STARTCHAR afii10022
ENCODING 1045
SWIDTH 631 0
DWIDTH 12 0
BBX 12 14 2 0
BITMAP
1FF0
3C00
3C00
3C00
3800
3800
7FC0
7800
7800
7800
7000
F000
F000
FFC0
ENDCHAR
STARTCHAR afii10024
ENCODING 1046
SWIDTH 1000 0
DWIDTH 19 0
BBX 20 14 -1 0
BITMAP
0C1C30
043C20
063C40
023CC0
033980
013900
017B00
03FF00
077B80
0E79C0
1C71C0
38F0E0
70F0E0
E0F070
ENDCHAR
STARTCHAR afii10025
ENCODING 1047
SWIDTH 631 0
DWIDTH 12 0
BBX 11 14 1 0
BITMAP
3F80
30E0
00E0
00E0
00C0
0380
1E00
0380
01C0
01C0
01C0
01C0
C380
FF00
ENDCHAR
STARTCHAR afii10026
ENCODING 1048
SWIDTH 789 0
DWIDTH 15 0
BBX 14 14 2 0
BITMAP
181C
383C
387C
38F8
38F8
31F8
73B8
7738
7E30
7C70
7C70
F870
F070
E060
ENDCHAR
STARTCHAR afii10027
ENCODING 1049
SWIDTH 789 0
DWIDTH 15 0
BBX 14 16 2 0
BITMAP
07F0
0000
181C
383C
387C
38F8
38F8
31F8
73B8
7738
7E30
7C70
7C70
F870
F070
E060
ENDCHAR
STARTCHAR afii10028
ENCODING 1050
SWIDTH 736 0
DWIDTH 14 0
BBX 12 14 2 0
BITMAP
1C30
3C20
3C40
3CC0
3D80
3900
7B00
7F00
7B80
79C0
71C0
F0E0
F0E0
F070
ENDCHAR
STARTCHAR afii10029
ENCODING 1051
SWIDTH 789 0
DWIDTH 15 0
BBX 17 14 0 0
BITMAP
03FF80
030780
030780
070700
060700
060F00
060F00
060F00
0E0E00
0C1E00
0C1E00
181E00
381E00
E01C00
ENDCHAR
STARTCHAR afii10030
ENCODING 1052
SWIDTH 947 0
DWIDTH 18 0
BBX 17 14 2 0
BITMAP
1E0780
3E0780
3F0F80
3F0F00
3F1700
371700
772700
776F00
774E00
77CE00
678E00
E70E00
E31E00
E01C00
ENDCHAR
STARTCHAR afii10031
ENCODING 1053
SWIDTH 789 0
DWIDTH 15 0
BBX 15 14 2 0
BITMAP
1C1E
3C1E
3C1E
3C1C
3C1C
383C
7FFC
783C
7838
7078
7078
F078
F078
F070
ENDCHAR
STARTCHAR afii10032
ENCODING 1054
SWIDTH 842 0
DWIDTH 16 0
BBX 13 14 3 0
BITMAP
07C0
0C70
1838
3038
7038
6038
E038
E038
E038
E070
E060
60E0
71C0
1F00
ENDCHAR
STARTCHAR afii10033
ENCODING 1055
SWIDTH 789 0
DWIDTH 15 0
BBX 15 14 2 0
BITMAP
1FFE
3C1E
3C1E
3C1C
3C1C
383C
783C
783C
7838
7078
7078
F078
F078
F070
ENDCHAR
STARTCHAR afii10034
ENCODING 1056
SWIDTH 631 0
DWIDTH 12 0
BBX 12 14 2 0
BITMAP
1FE0
3C70
3870
3870
3870
3860
79C0
7F00
7000
7000
7000
F000
F000
E000
ENDCHAR
STARTCHAR afii10035
ENCODING 1057
SWIDTH 736 0
DWIDTH 14 0
BBX 14 14 2 0
BITMAP
03FC
0E0C
1800
3800
7000
6000
E000
E000
E000
E000
E000
7000
7830
1FF0
ENDCHAR
STARTCHAR afii10036
ENCODING 1058
SWIDTH 736 0
DWIDTH 14 0
BBX 14 14 3 0
BITMAP
FFFC
0700
0700
0700
0F00
0F00
0F00
0E00
0E00
1E00
1E00
1E00
1E00
1C00
ENDCHAR
STARTCHAR afii10037
ENCODING 1059
SWIDTH 789 0
DWIDTH 15 0
BBX 13 14 2 0
BITMAP
7808
7818
3810
3C30
3C20
1C40
1EC0
1E80
0F00
0E00
0600
0400
1800
F000
ENDCHAR
STARTCHAR afii10038
ENCODING 1060
SWIDTH 1000 0
DWIDTH 19 0
BBX 18 14 2 0
BITMAP
00F000
00F000
0FFE00
38E380
70E1C0
60E1C0
E1E1C0
E1E1C0
E1C180
E1C380
71C700
1FFC00
03C000
03C000
ENDCHAR
STARTCHAR afii10039
ENCODING 1061
SWIDTH 684 0
DWIDTH 13 0
BBX 13 14 -1 0
BITMAP
1C18
1C10
0C20
0E40
0E80
0780
0700
0700
0F80
1B80
1180
21C0
61C0
C0E0
ENDCHAR
STARTCHAR afii10040
ENCODING 1062
SWIDTH 789 0
DWIDTH 15 0
BBX 15 18 2 -4
BITMAP
1C1E
3C1E
3C1E
3C1C
3C1C
383C
783C
783C
7838
7078
7078
F078
F078
FFFC
0078
0078
0078
0070
ENDCHAR
STARTCHAR afii10041
ENCODING 1063
SWIDTH 736 0
DWIDTH 14 0
BBX 14 14 2 0
BITMAP
783C
783C
783C
F838
F038
F078
F0F8
71F8
3F70
00F0
00F0
00F0
00F0
00E0
ENDCHAR
STARTCHAR afii10042
ENCODING 1064
SWIDTH 1000 0
DWIDTH 19 0
BBX 19 14 2 0
BITMAP
1C71E0
3C71E0
3C71E0
3C61C0
3C61C0
38E3C0
78E3C0
78E3C0
78C380
70C780
71C780
F1C780
F1C780
FFFF00
ENDCHAR
STARTCHAR afii10043
ENCODING 1065
SWIDTH 1000 0
DWIDTH 19 0
BBX 19 18 2 -4
BITMAP
1C71E0
3C71E0
3C71E0
3C61C0
3C61C0
38E3C0
78E3C0
78E3C0
78C380
70C780
71C780
F1C780
F1C780
FFFFC0
000780
000780
000780
000700
ENDCHAR
STARTCHAR afii10044
ENCODING 1066
SWIDTH 736 0
DWIDTH 14 0
BBX 11 14 2 0
BITMAP
FC00
3C00
3C00
3C00
3800
3800
7F00
79C0
78E0
78E0
70E0
F0E0
F1C0
FF80
ENDCHAR
STARTCHAR afii10045
ENCODING 1067
SWIDTH 1052 0
DWIDTH 20 0
BBX 20 14 1 0
BITMAP
1C00F0
3C00F0
3C00F0
3C00E0
3800E0
3800E0
7F01E0
79C1E0
78E1C0
78E1C0
70E1C0
F0E3C0
F1C3C0
FF83C0
ENDCHAR
STARTCHAR afii10046
ENCODING 1068
SWIDTH 684 0
DWIDTH 13 0
BBX 11 14 1 0
BITMAP
1C00
3C00
3C00
3C00
3800
3800
7F00
79C0
78E0
78E0
70E0
F0E0
F1C0
FF80
ENDCHAR
STARTCHAR afii10047
ENCODING 1069
SWIDTH 736 0
DWIDTH 14 0
BBX 13 14 1 0
BITMAP
3FC0
3070
0038
0038
0038
0038
0FF8
0038
0038
0070
0060
00E0
C1C0
FF00
ENDCHAR
STARTCHAR afii10048
ENCODING 1070
SWIDTH 1210 0
DWIDTH 23 0
BBX 21 14 2 0
BITMAP
3C07C0
3C0C70
3C1838
383038
387038
386038
7FE038
78E038
70E038
70E070
70E060
F060E0
F071C0
F01F00
ENDCHAR
STARTCHAR afii10049
ENCODING 1071
SWIDTH 684 0
DWIDTH 13 0
BBX 14 14 0 0
BITMAP
07FC
0E3C
1C3C
1C38
1C78
0C78
0FF8
07F8
0770
0E70
1CF0
38F0
70F0
E0E0
ENDCHAR
STARTCHAR afii10065
ENCODING 1072
SWIDTH 684 0
DWIDTH 13 0
BBX 12 10 2 0
BITMAP
07F0
18F0
30E0
71E0
61E0
E3E0
EDE0
FDC0
F9C0
73C0
ENDCHAR
STARTCHAR afii10066
ENCODING 1073
SWIDTH 684 0
DWIDTH 13 0
BBX 11 14 2 0
BITMAP
03E0
0E00
1800
3800
3B00
7780
7DC0
79C0
F1C0
E180
E380
E300
E600
3C00
ENDCHAR
STARTCHAR afii10067
ENCODING 1074
SWIDTH 684 0
DWIDTH 13 0
BBX 11 14 2 0
BITMAP
07C0
0CE0
18E0
30C0
3180
7300
7580
61C0
E1C0
E1C0
E380
E300
E600
3C00
ENDCHAR
STARTCHAR afii10068
ENCODING 1075
SWIDTH 578 0
DWIDTH 11 0
BBX 9 10 2 0
BITMAP
1F00
2780
0380
0780
1F00
7C00
F000
E080
F180
7E00
ENDCHAR
STARTCHAR afii10069
ENCODING 1076
SWIDTH 684 0
DWIDTH 13 0
BBX 10 14 2 0
BITMAP
3C00
0700
0300
0180
0D80
33C0
73C0
61C0
E1C0
E180
E380
E300
E600
3C00
ENDCHAR
STARTCHAR afii10070
ENCODING 1077
SWIDTH 631 0
DWIDTH 12 0
BBX 10 10 2 0
BITMAP
0780
1DC0
38C0
71C0
F180
F300
FE00
F040
70C0
3F00
ENDCHAR
STARTCHAR afii10072
ENCODING 1078
SWIDTH 842 0
DWIDTH 16 0
BBX 17 10 -1 0
BITMAP
30F180
10E100
08E200
09E400
0DEC00
0FFC00
39CE00
79CE00
71C700
E3C700
ENDCHAR
STARTCHAR afii10073
ENCODING 1079
SWIDTH 526 0
DWIDTH 10 0
BBX 9 10 1 0
BITMAP
3F00
4380
0380
0700
3C00
0700
0380
0380
8700
7E00
ENDCHAR
STARTCHAR afii10074
ENCODING 1080
SWIDTH 684 0
DWIDTH 13 0
BBX 12 10 2 0
BITMAP
38F0
38F0
30E0
71E0
71E0
73E0
75E0
7DC0
F9C0
73C0
ENDCHAR
STARTCHAR afii10075
ENCODING 1081
SWIDTH 684 0
DWIDTH 13 0
BBX 12 12 2 0
BITMAP
0FE0
0000
38F0
38F0
30E0
71E0
71E0
73E0
75E0
7DC0
F9C0
73C0
ENDCHAR
STARTCHAR afii10076
ENCODING 1082
SWIDTH 684 0
DWIDTH 13 0
BBX 11 10 2 0
BITMAP
3C60
3840
3880
7900
7B00
7F00
7380
7380
F1C0
F1C0
ENDCHAR
STARTCHAR afii10077
ENCODING 1083
SWIDTH 684 0
DWIDTH 13 0
BBX 14 10 0 0
BITMAP
0FFC
0C3C
0C38
0C78
1C78
1878
1878
1870
3070
E0F0
ENDCHAR
STARTCHAR afii10078
ENCODING 1084
SWIDTH 842 0
DWIDTH 16 0
BBX 16 10 1 0
BITMAP
3E0F
3F1F
3F3E
7F3E
775E
775E
779E
679C
E31C
E03C
ENDCHAR
STARTCHAR afii10079
ENCODING 1085
SWIDTH 684 0
DWIDTH 13 0
BBX 13 10 1 0
BITMAP
3C78
3878
3870
78F0
7FF0
78F0
78F0
70E0
F0E0
F1E0
ENDCHAR
STARTCHAR afii10080
ENCODING 1086
SWIDTH 684 0
DWIDTH 13 0
BBX 10 10 2 0
BITMAP
0F00
3380
71C0
61C0
E1C0
E180
E380
E300
E600
3C00
ENDCHAR
STARTCHAR afii10081
ENCODING 1087
SWIDTH 684 0
DWIDTH 13 0
BBX 12 10 1 0
BITMAP
3CE0
39F0
3BE0
7EE0
7CE0
78E0
78E0
70C0
F1C0
F1C0
ENDCHAR
STARTCHAR afii10082
ENCODING 1088
SWIDTH 684 0
DWIDTH 13 0
BBX 13 14 1 -4
BITMAP
1E70
1CF8
3DF8
3D38
3A38
3C30
3870
7860
78C0
7F00
7000
7000
F000
F000
ENDCHAR
STARTCHAR afii10083
ENCODING 1089
SWIDTH 526 0
DWIDTH 10 0
BBX 9 10 2 0
BITMAP
0F80
1880
3000
6000
E000
E000
E100
E100
E300
3C00
ENDCHAR
STARTCHAR afii10084
ENCODING 1090
SWIDTH 1000 0
DWIDTH 19 0
BBX 18 10 1 0
BITMAP
3CE380
39E7C0
3BEF80
7EEB80
7CF180
79E380
71E380
71C300
F1C300
F3C700
ENDCHAR
STARTCHAR afii10085
ENCODING 1091
SWIDTH 631 0
DWIDTH 12 0
BBX 11 14 1 -4
BITMAP
7020
7040
78C0
7880
7900
3B00
3A00
3C00
3C00
3800
3000
3000
6000
C000
ENDCHAR
STARTCHAR afii10086
ENCODING 1092
SWIDTH 947 0
DWIDTH 18 0
BBX 17 18 2 -4
BITMAP
00F000
00F000
00E000
00E000
0EE600
1EEF00
33F380
61E380
61C380
E1C300
E3C700
E7E600
FBBC00
73B800
038000
038000
078000
078000
ENDCHAR
STARTCHAR afii10087
ENCODING 1093
SWIDTH 578 0
DWIDTH 11 0
BBX 10 10 0 0
BITMAP
78C0
3C80
3D00
1E00
1E00
1E00
1F00
2F00
4700
C780
ENDCHAR
STARTCHAR afii10088
ENCODING 1094
SWIDTH 684 0
DWIDTH 13 0
BBX 12 12 2 -2
BITMAP
38F0
38F0
30E0
71E0
71E0
73E0
75E0
7DC0
F9E0
73E0
01C0
03C0
ENDCHAR
STARTCHAR afii10089
ENCODING 1095
SWIDTH 631 0
DWIDTH 12 0
BBX 11 10 2 0
BITMAP
71E0
71E0
73C0
E7C0
FFC0
FBC0
73C0
0380
0780
0780
ENDCHAR
STARTCHAR afii10090
ENCODING 1096
SWIDTH 1000 0
DWIDTH 19 0
BBX 18 10 1 0
BITMAP
38F3C0
30E3C0
30E380
71E380
71E780
63CF80
75DF80
7DF700
F9E700
71CF00
ENDCHAR
STARTCHAR afii10091
ENCODING 1097
SWIDTH 1000 0
DWIDTH 19 0
BBX 18 12 1 -2
BITMAP
38F3C0
30E3C0
30E380
71E380
71E780
63CF80
75DF80
7DF700
F9E780
71CF80
000700
000F00
ENDCHAR
STARTCHAR afii10092
ENCODING 1098
SWIDTH 736 0
DWIDTH 14 0
BBX 11 10 2 0
BITMAP
FC00
3800
3BC0
76E0
7CE0
78E0
70C0
71C0
F380
7E00
ENDCHAR
STARTCHAR afii10093
ENCODING 1099
SWIDTH 1052 0
DWIDTH 20 0
BBX 19 10 1 0
BITMAP
3C01E0
3801E0
3BC1C0
76E3C0
7CE3C0
78E3C0
70C3C0
71C380
F38380
7E0780
ENDCHAR
STARTCHAR afii10094
ENCODING 1100
SWIDTH 684 0
DWIDTH 13 0
BBX 11 10 1 0
BITMAP
3C00
3800
3BC0
76E0
7CE0
78E0
70C0
71C0
F380
7E00
ENDCHAR
STARTCHAR afii10095
ENCODING 1101
SWIDTH 526 0
DWIDTH 10 0
BBX 9 10 0 0
BITMAP
3E00
4700
0380
0380
1F80
0380
0300
8600
8C00
7800
ENDCHAR
STARTCHAR afii10096
ENCODING 1102
SWIDTH 1052 0
DWIDTH 20 0
BBX 18 10 1 0
BITMAP
3C0F00
3C3380
3C71C0
7861C0
7FE1C0
78E180
78E380
70E300
F0E600
F03C00
ENDCHAR
STARTCHAR afii10097
ENCODING 1103
SWIDTH 684 0
DWIDTH 13 0
BBX 13 10 1 0
BITMAP
0FF8
1C78
3870
38F0
1CF0
07F0
0CF0
19E0
71E0
E1E0
ENDCHAR
STARTCHAR uni0450
ENCODING 1104
SWIDTH 612 0
DWIDTH 12 0
BBX 10 12 2 0
BITMAP
0780
0000
0780
1DC0
38C0
71C0
F180
F300
FE00
F040
70C0
3F00
ENDCHAR
STARTCHAR afii10071
ENCODING 1105
SWIDTH 612 0
DWIDTH 12 0
BBX 11 12 2 0
BITMAP
0EE0
0000
0780
1DC0
38C0
71C0
F180
F300
FE00
F040
70C0
3F00
ENDCHAR
STARTCHAR afii10099
ENCODING 1106
SWIDTH 684 0
DWIDTH 13 0
BBX 12 18 1 -4
BITMAP
1E00
1C00
7FC0
3C00
3CE0
3DF0
3BF0
7AE0
7CE0
78E0
78E0
70C0
F1C0
F1C0
0180
0180
0300
0E00
ENDCHAR
STARTCHAR afii10100
ENCODING 1107
SWIDTH 578 0
DWIDTH 11 0
BBX 9 13 2 0
BITMAP
0380
0E00
0000
1F00
2780
0380
0780
1F00
7C00
F000
E080
F180
7E00
ENDCHAR
STARTCHAR afii10101
ENCODING 1108
SWIDTH 526 0
DWIDTH 10 0
BBX 9 10 2 0
BITMAP
0F80
1880
3000
6000
FC00
E000
E100
E100
E300
3C00
ENDCHAR
STARTCHAR afii10102
ENCODING 1109
SWIDTH 527 0
DWIDTH 10 0
BBX 10 10 1 0
BITMAP
0FC0
1C40
3C00
3E00
3F00
1F80
0F80
0780
C700
FE00
ENDCHAR
STARTCHAR afii10103
ENCODING 1110
SWIDTH 343 0
DWIDTH 7 0
BBX 7 14 1 0
BITMAP
3E
00
00
00
3C
3C
3C
78
78
78
78
70
F0
F0
ENDCHAR
STARTCHAR afii10104
ENCODING 1111
SWIDTH 343 0
DWIDTH 7 0
BBX 9 12 1 0
BITMAP
3B80
0000
3C00
3C00
3800
7800
7800
7800
7800
7000
F000
F000
ENDCHAR
STARTCHAR afii10105
ENCODING 1112
SWIDTH 407 0
DWIDTH 8 0
BBX 11 18 -1 -4
BITMAP
01E0
0000
0000
0000
01C0
0180
0380
0380
0380
0380
0300
0300
0700
0700
0600
0600
8C00
F800
ENDCHAR
STARTCHAR afii10106
ENCODING 1113
SWIDTH 1052 0
DWIDTH 20 0
BBX 19 10 0 0
BITMAP
0FFC00
0C3C00
0C3BC0
0C7EE0
1C7CE0
1878E0
1870C0
1871C0
30F380
E07E00
ENDCHAR
STARTCHAR afii10107
ENCODING 1114
SWIDTH 1052 0
DWIDTH 20 0
BBX 18 10 1 0
BITMAP
3C7800
387800
387780
78FDC0
7FF9C0
78F1C0
78E180
70E380
F1E700
F0FC00
ENDCHAR
STARTCHAR afii10108
ENCODING 1115
SWIDTH 684 0
DWIDTH 13 0
BBX 12 14 1 0
BITMAP
1E00
1C00
7FC0
3C00
3CE0
3DF0
3BF0
7AE0
7CE0
78E0
78E0
70C0
F1C0
F1C0
ENDCHAR
STARTCHAR afii10109
ENCODING 1116
SWIDTH 684 0
DWIDTH 13 0
BBX 11 13 2 0
BITMAP
01C0
0700
0000
3C60
3840
3880
7900
7B00
7F00
7380
7380
F1C0
F1C0
ENDCHAR
STARTCHAR afii10110
ENCODING 1118
SWIDTH 631 0
DWIDTH 12 0
BBX 11 16 1 -4
BITMAP
0FC0
0000
7020
7040
78C0
7880
7900
3B00
3A00
3C00
3C00
3800
3000
3000
6000
C000
ENDCHAR
STARTCHAR afii10193
ENCODING 1119
SWIDTH 684 0
DWIDTH 13 0
BBX 12 12 2 -2
BITMAP
38F0
38F0
30E0
71E0
71E0
73E0
75E0
7DC0
F9C0
7BC0
3800
7800
ENDCHAR
STARTCHAR afii10146
ENCODING 1122
SWIDTH 736 0
DWIDTH 14 0
BBX 11 14 2 0
BITMAP
3C00
3C00
FF00
3C00
3800
3800
7F00
79C0
78E0
78E0
70E0
F0E0
F1C0
FF80
ENDCHAR
STARTCHAR afii10194
ENCODING 1123
SWIDTH 736 0
DWIDTH 14 0
BBX 11 14 2 0
BITMAP
1E00
1C00
1C00
3C00
FF00
3800
3BC0
76E0
7CE0
78E0
70C0
71C0
F380
7E00
ENDCHAR
STARTCHAR afii10147
ENCODING 1138
SWIDTH 842 0
DWIDTH 16 0
BBX 13 14 3 0
BITMAP
07C0
0C70
1838
3038
7038
6038
FFF8
E038
E038
E070
E060
60E0
71C0
1F00
ENDCHAR
STARTCHAR afii10195
ENCODING 1139
SWIDTH 684 0
DWIDTH 13 0
BBX 10 10 2 0
BITMAP
0F00
3380
71C0
61C0
FFC0
E180
E380
E300
E600
3C00
ENDCHAR
STARTCHAR afii10050
ENCODING 1168
SWIDTH 631 0
DWIDTH 12 0
BBX 13 17 2 0
BITMAP
0038
0078
0078
1FF0
3C00
3C00
3C00
3800
3800
7800
7800
7800
7000
7000
F000
F000
F000
ENDCHAR
STARTCHAR afii10098
ENCODING 1169
SWIDTH 526 0
DWIDTH 10 0
BBX 10 12 2 0
BITMAP
01C0
01C0
3FC0
3800
7800
7800
7800
7000
7000
F000
F000
F000
ENDCHAR
STARTCHAR uni04AA
ENCODING 1194
SWIDTH 737 0
DWIDTH 14 0
BBX 14 18 2 -4
BITMAP
03FC
0E0C
1800
3800
7000
6000
E000
E000
E000
E000
E000
7000
7830
1FF0
0400
0C00
0200
1C00
ENDCHAR
STARTCHAR uni04AB
ENCODING 1195
SWIDTH 548 0
DWIDTH 10 0
BBX 9 14 2 -4
BITMAP
0F80
1880
3000
6000
E000
E000
E100
E100
E300
3C00
1000
3000
0800
7000
ENDCHAR
STARTCHAR uni04AE
ENCODING 1198
SWIDTH 681 0
DWIDTH 13 0
BBX 10 14 2 0
BITMAP
C040
E080
E100
6300
7200
7400
3C00
3800
3800
7800
7800
7800
7000
F000
ENDCHAR
STARTCHAR uni04C0
ENCODING 1216
SWIDTH 361 0
DWIDTH 7 0
BBX 6 14 2 0
BITMAP
3C
3C
3C
38
38
38
78
78
70
70
70
F0
F0
F0
ENDCHAR
STARTCHAR uni04D2
ENCODING 1234
SWIDTH 771 0
DWIDTH 15 0
BBX 13 16 -1 0
BITMAP
03B8
0000
01C0
01E0
03E0
07E0
05E0
0CE0
08F0
18F0
10F0
30F0
3FF0
6078
4078
8078
ENDCHAR
STARTCHAR uni04D3
ENCODING 1235
SWIDTH 681 0
DWIDTH 13 0
BBX 12 12 2 0
BITMAP
0EE0
0000
07F0
18F0
30E0
71E0
61E0
E3E0
EDE0
FDC0
F9C0
73C0
ENDCHAR
STARTCHAR uni04D4
ENCODING 1236
SWIDTH 1004 0
DWIDTH 19 0
BBX 19 14 -1 0
BITMAP
003FE0
007800
00F800
01F800
017800
027000
04FF80
0CF000
0FF000
10F000
30F000
61E000
61E000
C1FF80
ENDCHAR
STARTCHAR uni04D5
ENCODING 1237
SWIDTH 987 0
DWIDTH 19 0
BBX 17 10 2 0
BITMAP
07FF00
18FB80
30F180
71E300
61E700
E3FC00
E5E080
FDE080
F8E380
70FE00
ENDCHAR
STARTCHAR uni04E6
ENCODING 1254
SWIDTH 855 0
DWIDTH 16 0
BBX 13 16 3 0
BITMAP
0770
0000
07C0
0C70
1838
3038
7038
6038
E038
E038
E038
E070
E060
60E0
71C0
1F00
ENDCHAR
STARTCHAR uni04E7
ENCODING 1255
SWIDTH 663 0
DWIDTH 13 0
BBX 10 12 2 0
BITMAP
1DC0
0000
0F00
3380
71C0
61C0
E1C0
E180
E380
E300
E600
3C00
ENDCHAR
STARTCHAR uni04E8
ENCODING 1256
SWIDTH 842 0
DWIDTH 16 0
BBX 13 14 3 0
BITMAP
07C0
0C70
1838
3038
7038
6038
FFF8
E038
E038
E070
E060
60E0
71C0
1F00
ENDCHAR
STARTCHAR uni04E9
ENCODING 1257
SWIDTH 684 0
DWIDTH 13 0
BBX 10 10 2 0
BITMAP
0F00
3380
71C0
61C0
FFC0
E180
E380
E300
E600
3C00
ENDCHAR
ENDFONT
